<mxfile host="app.diagrams.net" modified="2022-07-27T08:38:46.098Z" agent="5.0 (Macintosh; Intel Mac OS X 10_15_7) AppleWebKit/537.36 (KHTML, like Gecko) Chrome/103.0.0.0 Safari/537.36" etag="7TBAbbPtEoQYWVPDBfCu" version="20.0.3" type="github">
  <diagram id="KQf1vZGJM8P92GQr5cBG" name="第 1 页">
    <mxGraphModel dx="983" dy="548" grid="1" gridSize="10" guides="1" tooltips="1" connect="1" arrows="1" fold="1" page="1" pageScale="1" pageWidth="1169" pageHeight="827" background="#ffffff" math="0" shadow="0">
      <root>
        <mxCell id="0" />
        <mxCell id="1" parent="0" />
        <mxCell id="wOlgRXoAIq7am8BXZkf8-3" value="" style="edgeStyle=orthogonalEdgeStyle;rounded=0;orthogonalLoop=1;jettySize=auto;html=1;fillColor=#d5e8d4;strokeColor=#82b366;" edge="1" parent="1" source="wOlgRXoAIq7am8BXZkf8-1" target="wOlgRXoAIq7am8BXZkf8-2">
          <mxGeometry relative="1" as="geometry">
            <Array as="points">
              <mxPoint x="420" y="160" />
              <mxPoint x="420" y="160" />
            </Array>
          </mxGeometry>
        </mxCell>
        <mxCell id="wOlgRXoAIq7am8BXZkf8-1" value="教室端（盒子）" style="rounded=0;whiteSpace=wrap;html=1;fillColor=#dae8fc;strokeColor=#6c8ebf;" vertex="1" parent="1">
          <mxGeometry x="280" y="155" width="60" height="60" as="geometry" />
        </mxCell>
        <mxCell id="wOlgRXoAIq7am8BXZkf8-2" value="WS&lt;br&gt;服&lt;br&gt;务&lt;br&gt;器" style="rounded=0;whiteSpace=wrap;html=1;fillColor=#f5f5f5;strokeColor=#666666;fontColor=#333333;gradientColor=none;sketch=1;glass=0;shadow=0;" vertex="1" parent="1">
          <mxGeometry x="410" y="132" width="70" height="160" as="geometry" />
        </mxCell>
        <mxCell id="wOlgRXoAIq7am8BXZkf8-6" value="" style="edgeStyle=orthogonalEdgeStyle;rounded=0;orthogonalLoop=1;jettySize=auto;html=1;exitX=1;exitY=0.5;exitDx=0;exitDy=0;fillColor=#d5e8d4;strokeColor=#82b366;entryX=-0.029;entryY=0.8;entryDx=0;entryDy=0;entryPerimeter=0;" edge="1" parent="1" source="wOlgRXoAIq7am8BXZkf8-5" target="wOlgRXoAIq7am8BXZkf8-2">
          <mxGeometry relative="1" as="geometry">
            <mxPoint x="350" y="250" as="sourcePoint" />
            <mxPoint x="410" y="250" as="targetPoint" />
            <Array as="points" />
          </mxGeometry>
        </mxCell>
        <mxCell id="wOlgRXoAIq7am8BXZkf8-7" value="ws2" style="edgeLabel;html=1;align=center;verticalAlign=middle;resizable=0;points=[];" vertex="1" connectable="0" parent="wOlgRXoAIq7am8BXZkf8-6">
          <mxGeometry x="-0.0333" y="4" relative="1" as="geometry">
            <mxPoint x="1" y="14" as="offset" />
          </mxGeometry>
        </mxCell>
        <mxCell id="wOlgRXoAIq7am8BXZkf8-27" style="edgeStyle=orthogonalEdgeStyle;curved=1;orthogonalLoop=1;jettySize=auto;html=1;entryX=0.014;entryY=0.577;entryDx=0;entryDy=0;entryPerimeter=0;startArrow=none;startFill=0;endArrow=classic;endFill=1;strokeColor=#EA6B66;exitX=0.5;exitY=1;exitDx=0;exitDy=0;" edge="1" parent="1" source="wOlgRXoAIq7am8BXZkf8-5" target="wOlgRXoAIq7am8BXZkf8-17">
          <mxGeometry relative="1" as="geometry" />
        </mxCell>
        <mxCell id="wOlgRXoAIq7am8BXZkf8-5" value="教室端（盒子）" style="rounded=0;whiteSpace=wrap;html=1;fillColor=#dae8fc;strokeColor=#6c8ebf;" vertex="1" parent="1">
          <mxGeometry x="280" y="230" width="60" height="60" as="geometry" />
        </mxCell>
        <mxCell id="wOlgRXoAIq7am8BXZkf8-13" value="" style="edgeStyle=orthogonalEdgeStyle;orthogonalLoop=1;jettySize=auto;html=1;entryX=1.014;entryY=0.456;entryDx=0;entryDy=0;entryPerimeter=0;exitX=0.5;exitY=0;exitDx=0;exitDy=0;curved=1;fillColor=#d5e8d4;strokeColor=#82b366;" edge="1" parent="1">
          <mxGeometry relative="1" as="geometry">
            <mxPoint x="584.02" y="270" as="sourcePoint" />
            <mxPoint x="480" y="192.08000000000004" as="targetPoint" />
            <Array as="points">
              <mxPoint x="584.02" y="192" />
            </Array>
          </mxGeometry>
        </mxCell>
        <mxCell id="wOlgRXoAIq7am8BXZkf8-23" value="ws3" style="edgeLabel;html=1;align=center;verticalAlign=middle;resizable=0;points=[];" vertex="1" connectable="0" parent="wOlgRXoAIq7am8BXZkf8-13">
          <mxGeometry x="0.3841" y="4" relative="1" as="geometry">
            <mxPoint x="-6" y="14" as="offset" />
          </mxGeometry>
        </mxCell>
        <mxCell id="wOlgRXoAIq7am8BXZkf8-21" value="" style="edgeStyle=orthogonalEdgeStyle;orthogonalLoop=1;jettySize=auto;html=1;startArrow=none;startFill=0;endArrow=classic;endFill=1;entryX=1.014;entryY=0.592;entryDx=0;entryDy=0;entryPerimeter=0;strokeColor=#EA6B66;curved=1;" edge="1" parent="1" source="wOlgRXoAIq7am8BXZkf8-8" target="wOlgRXoAIq7am8BXZkf8-17">
          <mxGeometry relative="1" as="geometry">
            <Array as="points">
              <mxPoint x="585" y="397" />
            </Array>
          </mxGeometry>
        </mxCell>
        <mxCell id="wOlgRXoAIq7am8BXZkf8-25" value="" style="edgeStyle=orthogonalEdgeStyle;curved=1;orthogonalLoop=1;jettySize=auto;html=1;startArrow=none;startFill=0;endArrow=classic;endFill=1;strokeColor=#EA6B66;" edge="1" parent="1" source="wOlgRXoAIq7am8BXZkf8-8">
          <mxGeometry relative="1" as="geometry">
            <mxPoint x="480" y="231" as="targetPoint" />
            <Array as="points">
              <mxPoint x="585" y="231" />
            </Array>
          </mxGeometry>
        </mxCell>
        <mxCell id="wOlgRXoAIq7am8BXZkf8-8" value="投屏端（Pad）" style="ellipse;whiteSpace=wrap;html=1;aspect=fixed;fillColor=#ffe6cc;strokeColor=#d79b00;" vertex="1" parent="1">
          <mxGeometry x="545" y="270" width="80" height="80" as="geometry" />
        </mxCell>
        <mxCell id="wOlgRXoAIq7am8BXZkf8-16" value="ws1" style="text;html=1;align=center;verticalAlign=middle;resizable=0;points=[];autosize=1;strokeColor=none;fillColor=none;" vertex="1" parent="1">
          <mxGeometry x="358" y="155" width="40" height="30" as="geometry" />
        </mxCell>
        <mxCell id="wOlgRXoAIq7am8BXZkf8-17" value="流&lt;br&gt;媒&lt;br&gt;体&lt;br&gt;服&lt;br&gt;务&lt;br&gt;器" style="rounded=0;whiteSpace=wrap;html=1;fillColor=#f5f5f5;strokeColor=#666666;fontColor=#333333;sketch=1;" vertex="1" parent="1">
          <mxGeometry x="410" y="320" width="70" height="130" as="geometry" />
        </mxCell>
        <mxCell id="wOlgRXoAIq7am8BXZkf8-22" value="1.推流" style="text;html=1;align=center;verticalAlign=middle;resizable=0;points=[];autosize=1;strokeColor=none;fillColor=none;" vertex="1" parent="1">
          <mxGeometry x="506" y="367" width="60" height="30" as="geometry" />
        </mxCell>
        <mxCell id="wOlgRXoAIq7am8BXZkf8-26" value="2. 通知拉流" style="text;html=1;align=center;verticalAlign=middle;resizable=0;points=[];autosize=1;strokeColor=none;fillColor=none;" vertex="1" parent="1">
          <mxGeometry x="491" y="229" width="80" height="30" as="geometry" />
        </mxCell>
        <mxCell id="wOlgRXoAIq7am8BXZkf8-31" value="3.拉流" style="text;html=1;align=center;verticalAlign=middle;resizable=0;points=[];autosize=1;strokeColor=none;fillColor=none;" vertex="1" parent="1">
          <mxGeometry x="274" y="337" width="60" height="30" as="geometry" />
        </mxCell>
        <mxCell id="wOlgRXoAIq7am8BXZkf8-33" value="3.拉流" style="text;html=1;align=center;verticalAlign=middle;resizable=0;points=[];autosize=1;strokeColor=none;fillColor=none;" vertex="1" parent="1">
          <mxGeometry x="326" y="290" width="60" height="30" as="geometry" />
        </mxCell>
        <mxCell id="wOlgRXoAIq7am8BXZkf8-30" style="edgeStyle=orthogonalEdgeStyle;curved=1;orthogonalLoop=1;jettySize=auto;html=1;entryX=0;entryY=0.5;entryDx=0;entryDy=0;startArrow=none;startFill=0;endArrow=classic;endFill=1;strokeColor=#EA6B66;" edge="1" parent="1" source="wOlgRXoAIq7am8BXZkf8-1" target="wOlgRXoAIq7am8BXZkf8-17">
          <mxGeometry relative="1" as="geometry" />
        </mxCell>
      </root>
    </mxGraphModel>
  </diagram>
</mxfile>
